<svg width="64" height="64" viewBox="0 0 64 64" fill="none" xmlns="http://www.w3.org/2000/svg">
<path d="M4 12C4 7.58172 7.58172 4 12 4H18.4484C20.3609 4 22.1532 4.93316 23.25 6.5C24.3468 8.06684 26.1391 9 28.0516 9H52C56.4183 9 60 12.5817 60 17V50C60 54.4183 56.4183 58 52 58H12C7.58172 58 4 54.4183 4 50V12Z" fill="#41935E"/>
<path opacity="0.3" d="M18.4482 4C20.2413 4 21.9285 4.82032 23.0361 6.21387L23.4639 6.78613C24.5715 8.17968 26.2587 9 28.0518 9H52C56.4183 9 60 12.5817 60 17V18C60 13.5817 56.4183 10 52 10H28.0518C26.2587 10 24.5715 9.17968 23.4639 7.78613L23.0361 7.21387C21.9285 5.82032 20.2413 5 18.4482 5H12C7.58172 5 4 8.58172 4 13V12C4 7.58172 7.58172 4 12 4H18.4482Z" fill="white"/>
<path d="M4 22C4 17.5817 7.58172 14 12 14H52C56.4183 14 60 17.5817 60 22V52C60 56.4183 56.4183 60 52 60H12C7.58172 60 4 56.4183 4 52V22Z" fill="#5DD59F"/>
<path opacity="0.4" d="M52 14C56.4183 14 60 17.5817 60 22V23C60 18.5817 56.4183 15 52 15H12C7.58172 15 4 18.5817 4 23V22C4 17.5817 7.58172 14 12 14H52Z" fill="white"/>
</svg>
