<svg width="18" height="18" viewBox="0 0 18 18" fill="none" xmlns="http://www.w3.org/2000/svg">
<g clip-path="url(#clip0_5266_880)">
<path fill-rule="evenodd" clip-rule="evenodd" d="M7.28283 3.12853C7.2238 2.65877 6.88374 2.25077 6.39713 2.12912C5.76464 1.971 5.12281 2.35611 4.96469 2.98856L2.10226 14.4383C1.94415 15.0707 2.32925 15.7126 2.96171 15.8707C3.5942 16.0288 4.23602 15.6437 4.39414 15.0112L7.25657 3.56154C7.29292 3.4162 7.30047 3.27036 7.28301 3.13003L7.28283 3.12853ZM11.2094 4.49859C11.1297 4.05492 10.7983 3.67665 10.333 3.56033C9.70048 3.40221 9.05865 3.78732 8.90054 4.41977L6.39591 14.4383C6.35956 14.5836 6.35201 14.7294 6.36947 14.8698L6.36965 14.8713C6.42868 15.341 6.76874 15.749 7.25535 15.8707C7.88784 16.0288 8.52967 15.6437 8.68779 15.0112L11.1924 4.99276C11.234 4.82645 11.2379 4.6595 11.2098 4.50085L11.2094 4.49859ZM15.1451 5.92916C15.0652 5.48574 14.734 5.10783 14.2688 4.99154C13.6363 4.83343 12.9945 5.21853 12.8364 5.85098L10.6896 14.4383C10.648 14.6046 10.644 14.7715 10.6722 14.9302L10.6726 14.9324C10.7523 15.3761 11.0836 15.7544 11.549 15.8707C12.1815 16.0288 12.8233 15.6437 12.9814 15.0112L15.1283 6.42397C15.1699 6.25741 15.1738 6.09025 15.1455 5.93138L15.1451 5.92916Z" fill="white"/>
<path opacity="0.3" d="M11.8138 7.88171L10.4135 13.4813L10.0687 11.5497L11.4681 5.95007L11.8138 7.88171ZM7.75818 6.92957L6.17029 13.2782L5.8949 11.0712L7.48181 4.72156L7.75818 6.92957ZM15.9144 10.2225C16.0294 10.8641 15.6018 11.4785 14.9603 11.5936C14.7532 11.6308 14.5482 11.6117 14.3627 11.5468L15.4047 7.37878L15.9144 10.2225Z" fill="white"/>
</g>
<defs>
<clipPath id="clip0_5266_880">
<rect width="18" height="18" fill="white"/>
</clipPath>
</defs>
</svg>
