<svg width="64" height="64" viewBox="0 0 64 64" fill="none" xmlns="http://www.w3.org/2000/svg">
<path d="M42 40C42 37.7909 40.2091 36 38 36H26C23.7909 36 22 37.7909 22 40V52C22 54.2091 23.7909 56 26 56H38C40.2091 56 42 54.2091 42 52V40Z" stroke="white" stroke-width="2" stroke-linecap="round"/>
<path d="M22 12C22 9.79086 23.7909 8 26 8H38C40.2091 8 42 9.79086 42 12V24C42 26.2091 40.2091 28 38 28H26C23.7909 28 22 26.2091 22 24V12Z" fill="white" fill-opacity="0.23" stroke="white" stroke-width="2" stroke-linecap="round"/>
</svg>
