<svg width="16" height="16" viewBox="0 0 16 16" fill="none" xmlns="http://www.w3.org/2000/svg">
<path d="M8.03711 1.50684L10.2373 5.34863L10.3564 5.55664L10.5928 5.59473L14.9707 6.29785C14.9875 6.30057 14.9958 6.31077 14.998 6.31641L14.999 6.31836C15.0005 6.32233 15.0005 6.32567 15 6.32812C14.9995 6.33055 14.9984 6.33414 14.9951 6.33789H14.9941L11.9727 9.75977L11.8096 9.94531L11.8574 10.1875L12.6973 14.4688C12.6979 14.4728 12.6974 14.4764 12.6963 14.4795C12.695 14.4827 12.6924 14.4872 12.6875 14.4912C12.682 14.4957 12.6734 14.499 12.6621 14.499C12.6533 14.499 12.6492 14.4974 12.6484 14.4971L12.6465 14.4961L8.18262 12.7354L7.99902 12.6631L7.81543 12.7354L3.35254 14.4961L3.35059 14.4971C3.33772 14.5022 3.32136 14.5008 3.30957 14.4912H3.31055C3.30566 14.4871 3.30293 14.4827 3.30176 14.4795C3.30069 14.4763 3.29996 14.472 3.30078 14.4678L4.1416 10.1875L4.18945 9.94531L4.02637 9.76074L1.00586 6.33887C1.00251 6.33507 1.0006 6.33118 1 6.32812C0.99941 6.325 0.999392 6.32074 1.00098 6.31641C1.00212 6.3134 1.00552 6.31017 1.00977 6.30664L1.02832 6.29785L5.40723 5.59473L5.64355 5.55664L5.76172 5.34863L7.95996 1.50684C7.96664 1.5038 7.9809 1.5 8 1.5C8.01716 1.50003 8.02988 1.50394 8.03711 1.50684Z" stroke="white"/>
</svg>
