<svg width="64" height="64" viewBox="0 0 64 64" fill="none" xmlns="http://www.w3.org/2000/svg">
<path d="M42 12C42 9.79086 40.2091 8 38 8H26C23.7909 8 22 9.79086 22 12V24C22 26.2091 23.7909 28 26 28H38C40.2091 28 42 26.2091 42 24V12Z" stroke="white" stroke-width="2" stroke-linecap="round"/>
<path d="M22 40C22 37.7909 23.7909 36 26 36H38C40.2091 36 42 37.7909 42 40V52C42 54.2091 40.2091 56 38 56H26C23.7909 56 22 54.2091 22 52V40Z" fill="white" fill-opacity="0.23" stroke="white" stroke-width="2" stroke-linecap="round"/>
</svg>
