<svg width="64" height="64" viewBox="0 0 64 64" fill="none" xmlns="http://www.w3.org/2000/svg">
<path d="M21 18H43C44.6569 18 46 19.3431 46 21V48C46 49.6569 44.6569 51 43 51H21C19.3431 51 18 49.6569 18 48V21C18 19.3431 19.3431 18 21 18Z" stroke="white" stroke-width="2"/>
<g filter="url(#filter0_d_553_156)">
<path d="M38 18C38 14.6863 35.3137 12 32 12C28.6863 12 26 14.6863 26 18" stroke="white" stroke-width="2"/>
</g>
<g filter="url(#filter1_d_553_156)">
<path d="M22 18H42V23C42 24.1046 41.1046 25 40 25H24C22.8954 25 22 24.1046 22 23V18Z" stroke="white" stroke-width="2" shape-rendering="crispEdges"/>
</g>
<defs>
<filter id="filter0_d_553_156" x="21" y="11" width="22" height="15" filterUnits="userSpaceOnUse" color-interpolation-filters="sRGB">
<feFlood flood-opacity="0" result="BackgroundImageFix"/>
<feColorMatrix in="SourceAlpha" type="matrix" values="0 0 0 0 0 0 0 0 0 0 0 0 0 0 0 0 0 0 127 0" result="hardAlpha"/>
<feOffset dy="4"/>
<feGaussianBlur stdDeviation="2"/>
<feComposite in2="hardAlpha" operator="out"/>
<feColorMatrix type="matrix" values="0 0 0 0 0 0 0 0 0 0 0 0 0 0 0 0 0 0 0.25 0"/>
<feBlend mode="normal" in2="BackgroundImageFix" result="effect1_dropShadow_553_156"/>
<feBlend mode="normal" in="SourceGraphic" in2="effect1_dropShadow_553_156" result="shape"/>
</filter>
<filter id="filter1_d_553_156" x="17" y="17" width="30" height="17" filterUnits="userSpaceOnUse" color-interpolation-filters="sRGB">
<feFlood flood-opacity="0" result="BackgroundImageFix"/>
<feColorMatrix in="SourceAlpha" type="matrix" values="0 0 0 0 0 0 0 0 0 0 0 0 0 0 0 0 0 0 127 0" result="hardAlpha"/>
<feOffset dy="4"/>
<feGaussianBlur stdDeviation="2"/>
<feComposite in2="hardAlpha" operator="out"/>
<feColorMatrix type="matrix" values="0 0 0 0 0 0 0 0 0 0 0 0 0 0 0 0 0 0 0.25 0"/>
<feBlend mode="normal" in2="BackgroundImageFix" result="effect1_dropShadow_553_156"/>
<feBlend mode="normal" in="SourceGraphic" in2="effect1_dropShadow_553_156" result="shape"/>
</filter>
</defs>
</svg>
