<svg width="64" height="64" viewBox="0 0 64 64" fill="none" xmlns="http://www.w3.org/2000/svg">
<path fill-rule="evenodd" clip-rule="evenodd" d="M35.2061 12.0049C37.3194 12.1121 39 13.86 39 16V28H43L43.2061 28.0049C45.3194 28.1121 47 29.86 47 32V48L46.9951 48.2061C46.8913 50.2512 45.2512 51.8913 43.2061 51.9951L43 52H29C26.86 52 25.1121 50.3194 25.0049 48.2061L25 48V36H21C18.86 36 17.1121 34.3194 17.0049 32.2061L17 32V16C17 13.7909 18.7909 12 21 12H35L35.2061 12.0049ZM29 30C27.8954 30 27 30.8954 27 32V48C27 49.1046 27.8954 50 29 50H43C44.1046 50 45 49.1046 45 48V32C45 30.8954 44.1046 30 43 30H29ZM21 14C19.8954 14 19 14.8954 19 16V32C19 33.1046 19.8954 34 21 34H25V32C25 29.7909 26.7909 28 29 28H37V16C37 14.8954 36.1046 14 35 14H21Z" fill="white"/>
</svg>
