<svg width="64" height="64" viewBox="0 0 64 64" fill="none" xmlns="http://www.w3.org/2000/svg">
<path fill-rule="evenodd" clip-rule="evenodd" d="M36.2061 10.0049C38.3194 10.1121 40 11.86 40 14V26H44L44.2061 26.0049C46.3194 26.1121 48 27.86 48 30V50C48 52.14 46.3194 53.8879 44.2061 53.9951L44 54H28C25.86 54 24.1121 52.3194 24.0049 50.2061L24 50V38H20C17.86 38 16.1121 36.3194 16.0049 34.2061L16 34V14C16 11.7909 17.7909 10 20 10H36L36.2061 10.0049ZM28 28C26.8954 28 26 28.8954 26 30V50C26 51.1046 26.8954 52 28 52H44C45.1046 52 46 51.1046 46 50V30C46 28.8954 45.1046 28 44 28H28ZM20 12C18.8954 12 18 12.8954 18 14V34C18 35.1046 18.8954 36 20 36H24V30C24 27.7909 25.7909 26 28 26H38V14C38 12.8954 37.1046 12 36 12H20Z" fill="white"/>
</svg>
