<svg width="64" height="64" viewBox="0 0 64 64" fill="none" xmlns="http://www.w3.org/2000/svg">
<path d="M40 28H25.5" stroke="white" stroke-width="2" stroke-linecap="round"/>
<path d="M40 36H25" stroke="white" stroke-width="2" stroke-linecap="round"/>
<path d="M36 23.5V40" stroke="white" stroke-width="2" stroke-linecap="round"/>
<path d="M29 24V40" stroke="white" stroke-width="2" stroke-linecap="round"/>
<path d="M40 28C42.2091 28 44 26.2091 44 24C44 21.7909 42.2091 20 40 20C37.7909 20 36 21.7909 36 24" stroke="white" stroke-width="2" stroke-linecap="round"/>
<path d="M40 36C42.2091 36 44 37.7909 44 40C44 42.2091 42.2091 44 40 44C37.7909 44 36 42.2091 36 40" stroke="white" stroke-width="2" stroke-linecap="round"/>
<path d="M25 28C22.7909 28 21 26.2091 21 24C21 21.7909 22.7909 20 25 20C27.2091 20 29 21.7909 29 24" stroke="white" stroke-width="2" stroke-linecap="round"/>
<path d="M25 36C22.7909 36 21 37.7909 21 40C21 42.2091 22.7909 44 25 44C27.2091 44 29 42.2091 29 40" stroke="white" stroke-width="2" stroke-linecap="round"/>
</svg>
