<svg width="64" height="64" viewBox="0 0 64 64" fill="none" xmlns="http://www.w3.org/2000/svg">
<mask id="path-1-inside-1_456_25" fill="white">
<path d="M29.9922 12C38.6794 12.0001 46.3173 16.4914 50.7117 23.2784C51.0821 23.8505 50.8777 24.6075 50.2875 24.9484L46.0144 27.416C45.4249 27.7564 44.6746 27.5519 44.2925 26.9885C41.1875 22.4096 35.9413 19.4005 29.9922 19.4004C24.0778 19.4005 18.8582 22.3744 15.7465 26.9082C15.3613 27.4695 14.6099 27.6698 14.0223 27.3261L9.76382 24.8352C9.17548 24.4911 8.97534 23.7329 9.34899 23.1628C13.7551 16.4407 21.3546 12.0001 29.9922 12Z"/>
</mask>
<path d="M29.9922 12L29.9922 10H29.9922L29.9922 12ZM29.9922 19.4004L29.9922 17.4004H29.9922L29.9922 19.4004ZM9.76382 24.8352L8.75403 26.5616L9.76382 24.8352ZM15.7465 26.9082L14.0975 25.7765L15.7465 26.9082ZM44.2925 26.9885L42.6372 28.111L44.2925 26.9885ZM50.7117 23.2784L52.3905 22.1914L50.7117 23.2784ZM50.2875 24.9484L49.2873 23.2164L50.2875 24.9484ZM29.9922 12L29.9922 14C37.9728 14.0001 44.9914 18.1235 49.0328 24.3654L50.7117 23.2784L52.3905 22.1914C47.6432 14.8593 39.3859 10.0001 29.9922 10L29.9922 12ZM50.2875 24.9484L49.2873 23.2164L45.0142 25.684L46.0144 27.416L47.0145 29.148L51.2877 26.6803L50.2875 24.9484ZM44.2925 26.9885L45.9478 25.866C42.4865 20.7618 36.6324 17.4005 29.9922 17.4004L29.9922 19.4004L29.9921 21.4004C35.2502 21.4005 39.8884 24.0574 42.6372 28.111L44.2925 26.9885ZM29.9922 19.4004L29.9922 17.4004C23.3908 17.4005 17.5662 20.7225 14.0975 25.7765L15.7465 26.9082L17.3955 28.04C20.1502 24.0263 24.7647 21.4005 29.9922 21.4004L29.9922 19.4004ZM14.0223 27.3261L15.0321 25.5997L10.7736 23.1088L9.76382 24.8352L8.75403 26.5616L13.0125 29.0525L14.0223 27.3261ZM9.34899 23.1628L11.0217 24.2592C15.074 18.0769 22.0572 14.0001 29.9922 14L29.9922 12L29.9922 10C20.652 10.0001 12.4362 14.8046 7.6763 22.0664L9.34899 23.1628ZM9.76382 24.8352L10.7736 23.1088C11.1155 23.3088 11.3116 23.8169 11.0217 24.2592L9.34899 23.1628L7.6763 22.0664C6.63909 23.6488 7.23549 25.6733 8.75403 26.5616L9.76382 24.8352ZM15.7465 26.9082L14.0975 25.7765C14.2541 25.5483 14.638 25.3692 15.0321 25.5997L14.0223 27.3261L13.0125 29.0525C14.5818 29.9704 16.4685 29.3906 17.3955 28.04L15.7465 26.9082ZM46.0144 27.416L45.0142 25.684C45.4096 25.4557 45.7925 25.637 45.9478 25.866L44.2925 26.9885L42.6372 28.111C43.5567 29.4668 45.4401 30.0571 47.0145 29.148L46.0144 27.416ZM50.7117 23.2784L49.0328 24.3654C48.7454 23.9215 48.9444 23.4144 49.2873 23.2164L50.2875 24.9484L51.2877 26.6803C52.811 25.8006 53.4188 23.7795 52.3905 22.1914L50.7117 23.2784Z" fill="white" mask="url(#path-1-inside-1_456_25)"/>
<mask id="path-3-inside-2_456_25" fill="white">
<path d="M29.9917 24.3334C36.8031 24.3334 42.3255 29.855 42.3257 36.6664C42.3257 43.4779 36.8032 49.0004 29.9917 49.0004C23.1803 49.0002 17.6587 43.4778 17.6587 36.6664C17.6589 29.8551 23.1804 24.3335 29.9917 24.3334Z"/>
</mask>
<path d="M29.9917 24.3334V22.3334H29.9916L29.9917 24.3334ZM42.3257 36.6664H44.3257V36.6663L42.3257 36.6664ZM29.9917 49.0004L29.9916 51.0004H29.9917V49.0004ZM17.6587 36.6664L15.6587 36.6663V36.6664H17.6587ZM29.9917 24.3334V26.3334C35.6987 26.3334 40.3255 30.9598 40.3257 36.6664L42.3257 36.6664L44.3257 36.6663C44.3255 28.7503 37.9075 22.3334 29.9917 22.3334V24.3334ZM42.3257 36.6664H40.3257C40.3257 42.3733 35.6986 47.0004 29.9917 47.0004V49.0004V51.0004C37.9078 51.0004 44.3257 44.5825 44.3257 36.6664H42.3257ZM29.9917 49.0004L29.9918 47.0004C24.2851 47.0002 19.6587 42.3734 19.6587 36.6664H17.6587H15.6587C15.6587 44.5822 22.0756 51.0002 29.9916 51.0004L29.9917 49.0004ZM17.6587 36.6664L19.6587 36.6664C19.6588 30.9597 24.285 26.3335 29.9918 26.3334L29.9917 24.3334L29.9916 22.3334C22.0759 22.3336 15.6589 28.7505 15.6587 36.6663L17.6587 36.6664Z" fill="white" mask="url(#path-3-inside-2_456_25)"/>
<path d="M30.2462 31.7401C32.8527 31.8724 34.9249 34.0275 34.9249 36.6669L34.9191 36.9208C34.7868 39.5272 32.6316 41.5994 29.9923 41.5995L29.7384 41.5936C27.2159 41.4659 25.1936 39.4432 25.0656 36.9208L25.0587 36.6669C25.0587 33.9423 27.2677 31.7333 29.9923 31.7333L30.2462 31.7401ZM29.9923 33.7333C28.3723 33.7333 27.0587 35.0468 27.0587 36.6669C27.0589 38.2868 28.3724 39.5995 29.9923 39.5995C31.6121 39.5993 32.9248 38.2867 32.9249 36.6669C32.9249 35.0469 31.6122 33.7334 29.9923 33.7333Z" fill="white"/>
</svg>
