<svg width="16" height="16" viewBox="0 0 16 16" fill="none" xmlns="http://www.w3.org/2000/svg">
<path d="M2.5 2.5L14.5 14.5" stroke="white" stroke-linecap="round"/>
<path d="M4.17712 6.2981L1.95251 6.65552L4.72791 9.80005L4.6322 10.2844L3.9574 13.72L7.99939 12.1262L11.3109 13.4319L12.8451 14.9661C12.7864 14.9871 12.7249 14.9992 12.6625 14.9993C12.5951 14.9992 12.5273 14.9876 12.4633 14.9622L7.99939 13.2014L3.5365 14.9622C3.35518 15.0345 3.14747 15.002 2.99548 14.8792C2.84445 14.7561 2.77417 14.5627 2.81091 14.3733L3.65173 10.092L0.631226 6.66919C0.50414 6.52506 0.467029 6.32535 0.532593 6.14575C0.598217 5.96606 0.757391 5.83587 0.949585 5.80493L3.30505 5.42603L4.17712 6.2981ZM7.53357 1.24927C7.7231 0.917542 8.27765 0.917522 8.46716 1.24927L10.6722 5.10083L15.0511 5.80493C15.2424 5.83607 15.4026 5.96627 15.4681 6.14575C15.5341 6.32512 15.4969 6.5252 15.3695 6.66919L12.348 10.0911L12.3802 10.259L11.5756 9.45435L14.0463 6.65552L10.5131 6.08813L10.0414 6.01294L7.99939 2.44653L6.74939 4.62817L6.01697 3.89575L7.53357 1.24927Z" fill="white"/>
</svg>
