<svg width="16" height="16" viewBox="0 0 16 16" fill="none" xmlns="http://www.w3.org/2000/svg">
<path fill-rule="evenodd" clip-rule="evenodd" d="M8.5 0.5C9.88044 0.500186 11 1.61929 11 3H14C15.1046 3 16 3.89543 16 5V13L15.9893 13.2041C15.887 14.2128 15.0357 15 14 15H2C0.964349 15 0.113005 14.2128 0.0107422 13.2041L0 13V3C4.83317e-08 1.61929 1.11956 0.500186 2.5 0.5H8.5ZM2 4C1.48232 4 1.05621 4.39333 1.00488 4.89746L1 5V13C1 13.5523 1.44772 14 2 14H14C14.5523 14 15 13.5523 15 13V5C15 4.44772 14.5523 4 14 4H2ZM2.5 1.5C1.67162 1.50019 1 2.1718 1 3V3.26953C1.29437 3.09906 1.63536 3 2 3H10C10 2.1718 9.32838 1.50019 8.5 1.5H2.5Z" fill="white"/>
</svg>
