<svg width="64" height="64" viewBox="0 0 64 64" fill="none" xmlns="http://www.w3.org/2000/svg">
<path d="M56 26C56 23.7909 54.2091 22 52 22H40C37.7909 22 36 23.7909 36 26V38C36 40.2091 37.7909 42 40 42H52C54.2091 42 56 40.2091 56 38V26Z" stroke="white" stroke-width="2" stroke-linecap="round"/>
<path d="M8 26C8 23.7909 9.79086 22 12 22H24C26.2091 22 28 23.7909 28 26V38C28 40.2091 26.2091 42 24 42H12C9.79086 42 8 40.2091 8 38V26Z" fill="white" fill-opacity="0.23" stroke="white" stroke-width="2" stroke-linecap="round"/>
</svg>
