<svg width="64" height="64" viewBox="0 0 64 64" fill="none" xmlns="http://www.w3.org/2000/svg">
<g clip-path="url(#clip0_53_862)">
<path d="M0 8C0 3.58172 3.58172 0 8 0H18.4484C20.3609 0 22.1532 0.93316 23.25 2.5C24.3468 4.06684 26.1391 5 28.0516 5H56C60.4183 5 64 8.58172 64 13V46C64 50.4183 60.4183 54 56 54H8C3.58172 54 0 50.4183 0 46V8Z" fill="#CB8131"/>
<path d="M0 18C0 13.5817 3.58172 10 8 10H56C60.4183 10 64 13.5817 64 18V56C64 60.4183 60.4183 64 56 64H8C3.58172 64 0 60.4183 0 56V18Z" fill="#E89F42"/>
</g>
<defs>
<clipPath id="clip0_53_862">
<rect width="64" height="64" fill="white"/>
</clipPath>
</defs>
</svg>
