<svg width="64" height="64" viewBox="0 0 64 64" fill="none" xmlns="http://www.w3.org/2000/svg">
<rect x="4" y="4" width="56" height="56" rx="14" fill="white"/>
<g clip-path="url(#clip0_218_2)">
<path d="M18 21.5C18 19.567 19.567 18 21.5 18H26.0712C26.9079 18 27.692 18.4083 28.1719 19.0938C28.6517 19.7792 29.4358 20.1875 30.2726 20.1875H42.5C44.433 20.1875 46 21.7545 46 23.6875V38.125C46 40.058 44.433 41.625 42.5 41.625H21.5C19.567 41.625 18 40.058 18 38.125V21.5Z" fill="#02A6EC"/>
<path opacity="0.3" d="M26.0715 18C26.8558 18.0001 27.5942 18.3586 28.0787 18.9681L28.265 19.2194C28.7495 19.8289 29.4879 20.1874 30.2722 20.1875H42.5C44.433 20.1875 46 21.7545 46 23.6875V24.5625C46 22.6295 44.433 21.0625 42.5 21.0625H30.2722C29.4879 21.0624 28.7495 20.7039 28.265 20.0944L28.0787 19.8431C27.5942 19.2336 26.8558 18.8751 26.0715 18.875H21.5C19.567 18.875 18 20.442 18 22.375V21.5C18 19.567 19.567 18 21.5 18H26.0715Z" fill="white"/>
<path d="M18 25.875C18 23.942 19.567 22.375 21.5 22.375H42.5C44.433 22.375 46 23.942 46 25.875V42.5C46 44.433 44.433 46 42.5 46H21.5C19.567 46 18 44.433 18 42.5V25.875Z" fill="#55C2EE"/>
<path opacity="0.3" d="M42.5 22.375C44.433 22.375 46 23.942 46 25.875V26.75C46 24.817 44.433 23.25 42.5 23.25H21.5C19.567 23.25 18 24.817 18 26.75V25.875C18 23.942 19.567 22.375 21.5 22.375H42.5Z" fill="white"/>
</g>
<defs>
<clipPath id="clip0_218_2">
<rect x="18" y="18" width="28" height="28" rx="3.5" fill="white"/>
</clipPath>
</defs>
</svg>
