<svg width="16" height="16" viewBox="0 0 16 16" fill="none" xmlns="http://www.w3.org/2000/svg">
<path fill-rule="evenodd" clip-rule="evenodd" d="M13.2041 0.0107422C14.2128 0.113005 15 0.964349 15 2V11C15 12.0357 14.2128 12.887 13.2041 12.9893L13 13H11V14C11 15.0357 10.2128 15.887 9.2041 15.9893L9 16H3L2.7959 15.9893C1.85435 15.8938 1.1062 15.1457 1.01074 14.2041L1 14V4C1 2.89543 1.89543 2 3 2H4C4 0.895431 4.89543 3.22128e-08 6 0H13L13.2041 0.0107422ZM3 3C2.44772 3 2 3.44772 2 4V14C2 14.5523 2.44772 15 3 15H9C9.55228 15 10 14.5523 10 14V13H6C4.96435 13 4.113 12.2128 4.01074 11.2041L4 11V3H3ZM6 1C5.44772 1 5 1.44772 5 2V11C5 11.5523 5.44772 12 6 12H13C13.5523 12 14 11.5523 14 11V2C14 1.44772 13.5523 1 13 1H6Z" fill="white"/>
</svg>
