<svg width="64" height="64" viewBox="0 0 64 64" fill="none" xmlns="http://www.w3.org/2000/svg">
<rect x="4" y="4" width="56" height="56" rx="14" fill="white"/>
<path d="M22 22C22 19.7909 23.7909 18 26 18H38C40.2091 18 42 19.7909 42 22V42C42 44.2091 40.2091 46 38 46H26C23.7909 46 22 44.2091 22 42V22Z" fill="url(#paint0_linear_218_26)"/>
<path d="M34 18H38C40.2091 18 42 19.7909 42 22V26H38C35.7909 26 34 24.2091 34 22V18Z" fill="#2A623C"/>
<path opacity="0.5" d="M38 18C40.2091 18 42 19.7909 42 22V23C42 20.7909 40.2091 19 38 19H26C23.7909 19 22 20.7909 22 23V22C22 19.7909 23.7909 18 26 18H38Z" fill="white"/>
<path d="M38 26H42L34 18V22C34 24.2091 35.7909 26 38 26Z" fill="#B3FFCB"/>
<defs>
<linearGradient id="paint0_linear_218_26" x1="32.25" y1="18" x2="32.25" y2="46" gradientUnits="userSpaceOnUse">
<stop stop-color="#68EEB8"/>
<stop offset="1" stop-color="#3C8A55"/>
</linearGradient>
</defs>
</svg>
