<svg width="64" height="64" viewBox="0 0 64 64" fill="none" xmlns="http://www.w3.org/2000/svg">
<rect x="4" y="4" width="56" height="56" rx="14" fill="white"/>
<path d="M35.5 18L42.5 25V42.5C42.5 44.433 40.933 46 39 46H25C23.067 46 21.5 44.433 21.5 42.5V21.5C21.5 19.567 23.067 18 25 18H35.5Z" fill="url(#paint0_linear_218_26)"/>
<path opacity="0.3" d="M25 18.875H35.5V18H25C23.067 18 21.5 19.567 21.5 21.5V22.375C21.5 20.442 23.067 18.875 25 18.875Z" fill="white"/>
<path d="M39 25H42.5L35.5 18V21.5C35.5 23.433 37.067 25 39 25Z" fill="#3D8B56"/>
<defs>
<linearGradient id="paint0_linear_218_26" x1="32" y1="18" x2="32" y2="46" gradientUnits="userSpaceOnUse">
<stop stop-color="#68EEB8"/>
<stop offset="1" stop-color="#3C8A55"/>
</linearGradient>
</defs>
</svg>
