<svg width="64" height="64" viewBox="0 0 64 64" fill="none" xmlns="http://www.w3.org/2000/svg">
<g clip-path="url(#clip0_53_840)">
<path d="M0 8C0 3.58172 3.58172 0 8 0H18.4484C20.3609 0 22.1532 0.93316 23.25 2.5C24.3468 4.06684 26.1391 5 28.0516 5H56C60.4183 5 64 8.58172 64 13V46C64 50.4183 60.4183 54 56 54H8C3.58172 54 0 50.4183 0 46V8Z" fill="#02A6EC"/>
<path opacity="0.3" d="M18.4482 0C20.2413 0 21.9285 0.820316 23.0361 2.21387L23.4639 2.78613C24.5715 4.17968 26.2587 5 28.0518 5H56C60.4183 5 64 8.58172 64 13V14C64 9.58172 60.4183 6 56 6H28.0518C26.2587 6 24.5715 5.17968 23.4639 3.78613L23.0361 3.21387C21.9285 1.82032 20.2413 1 18.4482 1H8C3.58172 1 0 4.58172 0 9V8C0 3.58172 3.58172 0 8 0H18.4482Z" fill="white"/>
<path d="M0 18C0 13.5817 3.58172 10 8 10H56C60.4183 10 64 13.5817 64 18V56C64 60.4183 60.4183 64 56 64H8C3.58172 64 0 60.4183 0 56V18Z" fill="#55C2EE"/>
<path opacity="0.4" d="M56 10C60.4183 10 64 13.5817 64 18V19C64 14.5817 60.4183 11 56 11H8C3.58172 11 0 14.5817 0 19V18C0 13.5817 3.58172 10 8 10H56Z" fill="white"/>
</g>
<defs>
<clipPath id="clip0_53_840">
<rect width="64" height="64" fill="white"/>
</clipPath>
</defs>
</svg>
