<svg width="16" height="16" viewBox="0 0 16 16" fill="none" xmlns="http://www.w3.org/2000/svg">
<path d="M13.1466 2.14657C13.3418 1.95131 13.6583 1.95131 13.8536 2.14657C14.0488 2.34183 14.0488 2.65835 13.8536 2.8536L8.70712 8.00008L13.8536 13.1466C14.0488 13.3418 14.0488 13.6584 13.8536 13.8536C13.6584 14.0488 13.3418 14.0488 13.1466 13.8536L8.00008 8.70712L2.8536 13.8536C2.65835 14.0488 2.34182 14.0488 2.14657 13.8536C1.95132 13.6584 1.95134 13.3418 2.14657 13.1466L7.29305 8.00008L2.14657 2.8536C1.95131 2.65834 1.95131 2.34183 2.14657 2.14657C2.34183 1.95131 2.65834 1.95131 2.8536 2.14657L8.00008 7.29305L13.1466 2.14657Z" fill="white"/>
</svg>
