<svg width="64" height="64" viewBox="0 0 64 64" fill="none" xmlns="http://www.w3.org/2000/svg">
<path d="M28 26C28 23.7909 26.2091 22 24 22H12C9.79086 22 8 23.7909 8 26V38C8 40.2091 9.79086 42 12 42H24C26.2091 42 28 40.2091 28 38V26Z" stroke="white" stroke-width="2" stroke-linecap="round"/>
<path d="M36 26C36 23.7909 37.7909 22 40 22H52C54.2091 22 56 23.7909 56 26V38C56 40.2091 54.2091 42 52 42H40C37.7909 42 36 40.2091 36 38V26Z" fill="white" fill-opacity="0.23" stroke="white" stroke-width="2" stroke-linecap="round"/>
</svg>
