<svg width="16" height="16" viewBox="0 0 16 16" fill="none" xmlns="http://www.w3.org/2000/svg">
<path d="M2 4.5H14C14.2761 4.5 14.5 4.72386 14.5 5V15C14.5 15.2761 14.2761 15.5 14 15.5H2C1.72386 15.5 1.5 15.2761 1.5 15V5C1.5 4.72386 1.72386 4.5 2 4.5Z" stroke="white"/>
<path d="M12.5 4.5V3.5C12.5 2.94772 12.0523 2.5 11.5 2.5H4.5C3.94772 2.5 3.5 2.94772 3.5 3.5V4.5" stroke="white"/>
<path d="M10.5 2.5V1.5C10.5 0.947715 10.0523 0.5 9.5 0.5H6.5C5.94772 0.5 5.5 0.947715 5.5 1.5V2.5" stroke="white"/>
</svg>
