<svg width="16" height="16" viewBox="0 0 16 16" fill="none" xmlns="http://www.w3.org/2000/svg">
<g clip-path="url(#clip0_931_486)">
<mask id="path-1-outside-1_931_486" maskUnits="userSpaceOnUse" x="0" y="0" width="16" height="16" fill="black">
<rect fill="white" width="16" height="16"/>
<path d="M8.24609 1C8.69241 1.00017 9.08441 1.29641 9.20703 1.72559L9.77441 3.71289L11.583 2.70898C11.9733 2.49225 12.4597 2.56128 12.7754 2.87695L13.123 3.22363C13.4388 3.53934 13.5069 4.0267 13.29 4.41699L12.2852 6.22363L14.2744 6.79297C14.7036 6.91559 14.9998 7.30759 15 7.75391V8.24609C14.9998 8.69241 14.7036 9.08441 14.2744 9.20703L12.2861 9.77441L13.291 11.583C13.5078 11.9733 13.4397 12.4607 13.124 12.7764L12.7764 13.124C12.4608 13.4394 11.9741 13.5074 11.584 13.291L9.77441 12.2852L9.20703 14.2744C9.08441 14.7036 8.69241 14.9998 8.24609 15H7.75391C7.30759 14.9998 6.91559 14.7036 6.79297 14.2744L6.22363 12.2852L4.41699 13.29C4.0267 13.5069 3.53934 13.4388 3.22363 13.123L3.0498 12.9502L2.87598 12.7764C2.56027 12.4607 2.49215 11.9733 2.70898 11.583L3.71289 9.77441L1.72559 9.20703C1.29641 9.08441 1.00017 8.69241 1 8.24609V7.75391C1.00017 7.30759 1.29641 6.91559 1.72559 6.79297L3.71387 6.22363L2.70996 4.41699C2.49313 4.0267 2.56124 3.53934 2.87695 3.22363L3.05078 3.05078L3.22461 2.87695C3.54032 2.56124 4.0267 2.49313 4.41699 2.70996L6.22363 3.71387L6.79297 1.72559C6.91559 1.29641 7.30759 1.00017 7.75391 1H8.24609Z"/>
</mask>
<path d="M8.24609 1L8.24649 0H8.24609V1ZM9.20703 1.72559L10.1686 1.45105L10.1686 1.45087L9.20703 1.72559ZM9.77441 3.71289L8.81284 3.98742L9.15859 5.19845L10.2597 4.58723L9.77441 3.71289ZM11.583 2.70898L12.0683 3.58332L12.0685 3.58322L11.583 2.70898ZM12.7754 2.87695L12.0683 3.58406L12.0693 3.58505L12.7754 2.87695ZM13.123 3.22363L13.8302 2.51653L13.8292 2.51553L13.123 3.22363ZM13.29 4.41699L14.164 4.90308L14.1642 4.90263L13.29 4.41699ZM12.2852 6.22363L11.4112 5.73755L10.7989 6.83842L12.01 7.18503L12.2852 6.22363ZM14.2744 6.79297L13.9993 7.75437L13.9997 7.75449L14.2744 6.79297ZM15 7.75391H16V7.75352L15 7.75391ZM15 8.24609L16 8.24649V8.24609H15ZM14.2744 9.20703L14.5488 10.1686L14.5491 10.1686L14.2744 9.20703ZM12.2861 9.77441L12.0117 8.8128L10.8 9.15859L11.412 10.2601L12.2861 9.77441ZM13.291 11.583L14.1652 11.0974L14.1652 11.0973L13.291 11.583ZM12.7764 13.124L13.4833 13.8313L13.4835 13.8311L12.7764 13.124ZM11.584 13.291L11.0981 14.1651L11.0989 14.1655L11.584 13.291ZM9.77441 12.2852L10.2603 11.4111L9.15851 10.7987L8.81277 12.0109L9.77441 12.2852ZM9.20703 14.2744L10.1686 14.5491L10.1687 14.5487L9.20703 14.2744ZM8.24609 15V16H8.24649L8.24609 15ZM7.75391 15L7.75351 16H7.75391V15ZM6.79297 14.2744L7.75449 13.9997L7.75437 13.9993L6.79297 14.2744ZM6.22363 12.2852L7.18503 12.01L6.83842 10.7989L5.73755 11.4112L6.22363 12.2852ZM4.41699 13.29L4.90264 14.1642L4.90308 14.164L4.41699 13.29ZM3.22363 13.123L3.93074 12.4159L3.92875 12.414L3.22363 13.123ZM3.0498 12.9502L2.3427 13.6573L2.34469 13.6593L3.0498 12.9502ZM2.87598 12.7764L3.58308 12.0693V12.0693L2.87598 12.7764ZM2.70898 11.583L3.58314 12.0687L3.58332 12.0683L2.70898 11.583ZM3.71289 9.77441L4.58723 10.2597L5.19845 9.15859L3.98742 8.81284L3.71289 9.77441ZM1.72559 9.20703L1.45086 10.1686L1.45105 10.1686L1.72559 9.20703ZM1 8.24609H-1.19209e-07L5.96046e-08 8.24649L1 8.24609ZM1 7.75391L0 7.75351V7.75391H1ZM1.72559 6.79297L2.00031 7.75449L2.00087 7.75433L1.72559 6.79297ZM3.71387 6.22363L3.98915 7.185L5.1995 6.83842L4.58798 5.73791L3.71387 6.22363ZM2.70996 4.41699L1.8358 4.90264L1.83585 4.90272L2.70996 4.41699ZM2.87695 3.22363L2.17184 2.51453L2.16985 2.51653L2.87695 3.22363ZM3.05078 3.05078L3.7559 3.75988L3.75789 3.75789L3.05078 3.05078ZM4.41699 2.70996L4.90272 1.83585L4.90264 1.8358L4.41699 2.70996ZM6.22363 3.71387L5.73791 4.58798L6.83842 5.1995L7.185 3.98915L6.22363 3.71387ZM6.79297 1.72559L7.75433 2.00087L7.75449 2.00031L6.79297 1.72559ZM7.75391 1V-1.19209e-07L7.75351 5.96046e-08L7.75391 1ZM8.24609 1L8.2457 2L8.24551 2.00031L9.20703 1.72559L10.1686 1.45087C9.92351 0.593197 9.13983 0.000349641 8.24649 5.96046e-08L8.24609 1ZM9.20703 1.72559L8.24545 2.00012L8.81284 3.98742L9.77441 3.71289L10.736 3.43836L10.1686 1.45105L9.20703 1.72559ZM9.77441 3.71289L10.2597 4.58723L12.0683 3.58332L11.583 2.70898L11.0977 1.83465L9.28909 2.83856L9.77441 3.71289ZM11.583 2.70898L12.0685 3.58322L12.0683 3.58406L12.7754 2.87695L13.4825 2.16985C12.8524 1.53971 11.8795 1.40046 11.0975 1.83475L11.583 2.70898ZM12.7754 2.87695L12.0693 3.58505L12.4169 3.93173L13.123 3.22363L13.8292 2.51553L13.4815 2.16885L12.7754 2.87695ZM13.123 3.22363L12.4159 3.93074L12.4159 3.93135L13.29 4.41699L14.1642 4.90263C14.5977 4.12229 14.4618 3.14814 13.8302 2.51653L13.123 3.22363ZM13.29 4.41699L12.4161 3.93091L11.4112 5.73755L12.2852 6.22363L13.1591 6.70972L14.164 4.90308L13.29 4.41699ZM12.2852 6.22363L12.01 7.18503L13.9993 7.75437L14.2744 6.79297L14.5496 5.83157L12.5603 5.26223L12.2852 6.22363ZM14.2744 6.79297L13.9997 7.75449L14 7.7543L15 7.75391L16 7.75352C15.9997 6.86017 15.4068 6.07649 14.5491 5.83144L14.2744 6.79297ZM15 7.75391H14V8.24609H15H16V7.75391H15ZM15 8.24609L14 8.2457L13.9997 8.24551L14.2744 9.20703L14.5491 10.1686C15.4068 9.92351 15.9997 9.13983 16 8.24649L15 8.24609ZM14.2744 9.20703L14 8.24542L12.0117 8.8128L12.2861 9.77441L12.5605 10.736L14.5488 10.1686L14.2744 9.20703ZM12.2861 9.77441L11.412 10.2601L12.4169 12.0687L13.291 11.583L14.1652 11.0973L13.1603 9.28873L12.2861 9.77441ZM13.291 11.583L12.4169 12.0687L12.4169 12.0693L13.124 12.7764L13.8311 13.4835C14.4627 12.8519 14.5987 11.8777 14.1652 11.0974L13.291 11.583ZM13.124 12.7764L12.4169 12.0693L12.0693 12.4169L12.7764 13.124L13.4835 13.8311L13.8311 13.4835L13.124 12.7764ZM12.7764 13.124L12.0695 12.4167L12.0691 12.4166L11.584 13.291L11.0989 14.1655C11.8788 14.5981 12.8518 14.4624 13.4833 13.8313L12.7764 13.124ZM11.584 13.291L12.0698 12.417L10.2603 11.4111L9.77441 12.2852L9.28857 13.1592L11.0981 14.1651L11.584 13.291ZM9.77441 12.2852L8.81277 12.0109L8.24538 14.0001L9.20703 14.2744L10.1687 14.5487L10.7361 12.5594L9.77441 12.2852ZM9.20703 14.2744L8.24551 13.9997L8.2457 14L8.24609 15L8.24649 16C9.13983 15.9997 9.92351 15.4068 10.1686 14.5491L9.20703 14.2744ZM8.24609 15V14H7.75391V15V16H8.24609V15ZM7.75391 15L7.7543 14L7.75449 13.9997L6.79297 14.2744L5.83144 14.5491C6.07649 15.4068 6.86017 15.9997 7.75351 16L7.75391 15ZM6.79297 14.2744L7.75437 13.9993L7.18503 12.01L6.22363 12.2852L5.26223 12.5603L5.83157 14.5496L6.79297 14.2744ZM6.22363 12.2852L5.73755 11.4112L3.93091 12.4161L4.41699 13.29L4.90308 14.164L6.70972 13.1591L6.22363 12.2852ZM4.41699 13.29L3.93135 12.4159L3.93074 12.4159L3.22363 13.123L2.51653 13.8302C3.14814 14.4618 4.12229 14.5977 4.90264 14.1642L4.41699 13.29ZM3.22363 13.123L3.92875 12.414L3.75492 12.2411L3.0498 12.9502L2.34469 13.6593L2.51852 13.8321L3.22363 13.123ZM3.0498 12.9502L3.75691 12.2431L3.58308 12.0693L2.87598 12.7764L2.16887 13.4835L2.3427 13.6573L3.0498 12.9502ZM2.87598 12.7764L3.58308 12.0693L3.58314 12.0687L2.70898 11.583L1.83483 11.0974C1.4013 11.8777 1.53725 12.8519 2.16887 13.4835L2.87598 12.7764ZM2.70898 11.583L3.58332 12.0683L4.58723 10.2597L3.71289 9.77441L2.83856 9.28909L1.83465 11.0977L2.70898 11.583ZM3.71289 9.77441L3.98742 8.81284L2.00012 8.24545L1.72559 9.20703L1.45105 10.1686L3.43836 10.736L3.71289 9.77441ZM1.72559 9.20703L2.00031 8.24551L2 8.2457L1 8.24609L5.96046e-08 8.24649C0.0003497 9.13983 0.593197 9.92351 1.45086 10.1686L1.72559 9.20703ZM1 8.24609H2V7.75391H1H0V8.24609H1ZM1 7.75391L2 7.7543L2.00031 7.75449L1.72559 6.79297L1.45087 5.83144C0.593197 6.07649 0.000349581 6.86017 5.96046e-08 7.75351L1 7.75391ZM1.72559 6.79297L2.00087 7.75433L3.98915 7.185L3.71387 6.22363L3.43858 5.26227L1.4503 5.83161L1.72559 6.79297ZM3.71387 6.22363L4.58798 5.73791L3.58407 3.93127L2.70996 4.41699L1.83585 4.90272L2.83975 6.70936L3.71387 6.22363ZM2.70996 4.41699L3.58412 3.93135L3.58406 3.93074L2.87695 3.22363L2.16985 2.51653C1.53823 3.14814 1.40228 4.12229 1.8358 4.90264L2.70996 4.41699ZM2.87695 3.22363L3.58207 3.93273L3.75589 3.75988L3.05078 3.05078L2.34567 2.34169L2.17184 2.51454L2.87695 3.22363ZM3.05078 3.05078L3.75789 3.75789L3.93172 3.58406L3.22461 2.87695L2.5175 2.16985L2.34367 2.34367L3.05078 3.05078ZM3.22461 2.87695L3.93172 3.58406L3.93135 3.58412L4.41699 2.70996L4.90264 1.8358C4.12206 1.40215 3.14893 1.53842 2.5175 2.16985L3.22461 2.87695ZM4.41699 2.70996L3.93127 3.58407L5.73791 4.58798L6.22363 3.71387L6.70936 2.83975L4.90272 1.83585L4.41699 2.70996ZM6.22363 3.71387L7.185 3.98915L7.75433 2.00087L6.79297 1.72559L5.83161 1.4503L5.26227 3.43858L6.22363 3.71387ZM6.79297 1.72559L7.75449 2.00031L7.7543 2L7.75391 1L7.75351 5.96046e-08C6.86017 0.000349641 6.07649 0.593197 5.83144 1.45086L6.79297 1.72559ZM7.75391 1V2H8.24609V1V0H7.75391V1Z" fill="white" mask="url(#path-1-outside-1_931_486)"/>
<circle cx="8" cy="8" r="2.5" stroke="white"/>
</g>
<defs>
<clipPath id="clip0_931_486">
<rect width="16" height="16" fill="white"/>
</clipPath>
</defs>
</svg>
